<svg id="Layer_1" data-name="Layer 1" xmlns="http://www.w3.org/2000/svg" viewBox="0 0 108.54 122.88"><title>product-idea</title><path d="M53.05,79.21,16.31,59.91,6.48,71.8c13.17,7,25.68,13.73,38.86,20.69l7.71-13.28Zm6.78-21.55a6.49,6.49,0,0,1-2.38,2.39,6.21,6.21,0,0,1-2.74.84,5.66,5.66,0,0,1-2.82-.55,5.81,5.81,0,0,1-1.67-1.24l9.61-1.44Zm-16-16.79a23.87,23.87,0,0,1-4.07-5.82A17.57,17.57,0,0,1,38,27.42a17.81,17.81,0,0,1,2.15-8.16l0-.05h0a15.4,15.4,0,0,1,7.55-6.6,16.77,16.77,0,0,1,7.86-1.13,18.14,18.14,0,0,1,7.5,2.41,15.52,15.52,0,0,1,6.55,7.43,16.35,16.35,0,0,1,1.24,5.77,16.66,16.66,0,0,1-1.27,6.77c-1.49,3.68-5,7.63-7.24,11.25a1,1,0,0,0-.38,0l-3.07.45c7-24.51,4.65-22.46-1.89.29l-4.64.69L48.22,33.36,47,29.46l-.31-.95A.86.86,0,1,0,45,29l5.58,17.77-3.36.5a19.77,19.77,0,0,0-3.46-6.42Zm10.11-39a1.91,1.91,0,0,1,.6-1.36A2,2,0,0,1,55.88,0H56A2,2,0,0,1,57.26.6,1.93,1.93,0,0,1,57.79,2h0a.34.34,0,0,1,0,.1l-.1,4.14h0v.14a2,2,0,0,1-2,1.78h-.14a2,2,0,0,1-1.78-2h0v-.1l.1-4.17ZM32.84,9.17a2,2,0,0,1-.62-1.36,2,2,0,0,1,.52-1.39,2,2,0,0,1,1.35-.62,1.93,1.93,0,0,1,1.4.52l3.11,2.9A1.93,1.93,0,0,1,38.7,12a2,2,0,0,1-1.35.62A1.89,1.89,0,0,1,36,12.06L32.84,9.17ZM27.75,30.56A1.92,1.92,0,0,1,26.39,30a1.94,1.94,0,0,1,1.27-3.36l4.25-.14a1.89,1.89,0,0,1,1.39.53,1.94,1.94,0,0,1,.61,1.35v0h0v.07a2,2,0,0,1-.53,1.3,1.89,1.89,0,0,1-1.35.6H32l-4.2.14Zm52.89-6h.06a1.93,1.93,0,0,1,2,1.74v0s0,.06,0,.07A1.94,1.94,0,0,1,81,28.41l-4.23.44a1.91,1.91,0,0,1-1.42-.42,2,2,0,0,1-.71-1.31,2,2,0,0,1,.43-1.42A1.91,1.91,0,0,1,76.4,25c1.41-.15,2.83-.32,4.24-.45ZM72.26,7.62A2,2,0,0,1,75,7.09h0a1.85,1.85,0,0,1,.82,1.23,1.93,1.93,0,0,1-.29,1.46l-2.36,3.53a1.93,1.93,0,0,1-2.7.53,1.93,1.93,0,0,1-.83-1.23,2,2,0,0,1,.3-1.46l2.36-3.54ZM61.17,47.5,60.86,49l-.08,1L48.22,51.87a14.49,14.49,0,0,0-.35-2.4l13.3-2Zm-.42,4.78v.63l0,.22a8.54,8.54,0,0,1,0,1.24l-.19.9L48.94,57l-.2-.47-.46-1.86v-.54l12.48-1.86ZM39.16,47.82,18.66,58,55,77.08,91.37,58,70.5,47,70.38,47l.9-1.26.75-1L92.7,55.32l11.44-10.88L86,34.61a9.11,9.11,0,0,0,2.33-2.08l.06-.07L107.8,42.72a1.56,1.56,0,0,1,.34.25,1.39,1.39,0,0,1,0,2L95.61,57.23l12.12,14.5a1.39,1.39,0,0,1-.18,2,1.73,1.73,0,0,1-.28.19L96.39,79.62v21.55a1.39,1.39,0,0,1-.86,1.29l-39.31,20a1.4,1.4,0,0,1-2.29-.31L14.55,102.42a1.4,1.4,0,0,1-.77-1.25V79.73L2.69,73.88a1.73,1.73,0,0,1-.28-.19,1.39,1.39,0,0,1-.18-2L14,57.61.34,44.63a1.39,1.39,0,0,1,.14-2,1.15,1.15,0,0,1,.26-.19l18-10.2.13.31A10,10,0,0,0,20.49,35L4.2,44.28,16.67,55.79,37.55,45.42l.45.52a8.45,8.45,0,0,1,.91,1.41l.25.47ZM94,59.7,56.92,79.21,64.7,92.62l39-21.19L94,59.7Z"/></svg>